<svg width="91" height="129" viewBox="0 0 91 129" fill="none" xmlns="http://www.w3.org/2000/svg">
<path fill-rule="evenodd" clip-rule="evenodd" d="M34.6951 8.313C33.7271 22.031 29.1691 31.821 15.5191 49.5C7.72411 59.596 5.41111 63.448 3.08711 70.204C-4.32089 91.737 3.99911 114.941 23.0441 125.861C26.0371 127.577 28.7531 128.985 29.0811 128.991C29.4091 128.996 27.9401 127.117 25.8161 124.817C19.4691 117.942 17.5291 108.059 20.4051 97.256C22.0801 90.962 26.3491 81.891 26.6431 84C27.6411 91.167 28.4751 93.488 31.1381 96.521C32.8181 98.435 34.5741 100 35.0411 100C35.5091 100 35.6481 97.863 35.3521 95.25C34.1121 84.32 38.6361 69.829 45.7641 61.901L50.4361 56.704L51.6741 62.82C53.2131 70.424 55.2761 74.505 62.9491 85.125C69.9951 94.877 72.4881 101.841 71.6921 109.547C71.0581 115.691 67.8781 122.363 63.7441 126.225C60.0571 129.669 60.6701 129.7 67.1851 126.399C74.2731 122.807 81.9961 114.755 85.8371 106.954C93.6191 91.144 92.1501 73.15 81.2821 51.155L77.6221 43.748L76.3221 48.209C75.6061 50.662 73.7791 53.981 72.2621 55.585L69.5021 58.5L68.8591 51.404C67.4911 36.306 61.2601 22.331 51.4851 12.44C46.4111 7.306 37.1431 0 35.7031 0C35.4721 0 35.0181 3.741 34.6951 8.313Z" fill="#FC3769"/>
</svg>
