<svg width="255" height="275" viewBox="0 0 255 275" fill="none" xmlns="http://www.w3.org/2000/svg">
<path fill-rule="evenodd" clip-rule="evenodd" d="M40.4251 151.523C36.75 136.189 38.1005 121.038 44.4445 106.432C50.7996 91.8006 64.9004 75.7109 79.5041 66.4262L87.1221 61.583L82.043 50.9624L76.9635 40.3409L111.891 51.039L146.817 61.7366L136 96.8666L125.183 131.997L119.574 122.038L113.964 112.08L106.563 116.267C86.7451 127.479 76.0208 141.395 74.7243 157.579C73.842 168.579 77.4749 185.057 83.1594 195.842C86.4566 202.099 85.6951 202.971 78.9896 200.617C72.2098 198.238 63.8257 192.144 57.6531 185.108C51.4419 178.027 42.6869 160.962 40.4251 151.523ZM119.415 177.198L130.071 142.383L135.262 152.815L140.452 163.246L150.596 157.163C170.555 145.195 178.86 133.834 180.378 116.418C181.314 105.675 179.217 96.3183 171.748 77.9044L169.531 72.4366L174.693 73.9484C181.325 75.8911 189.018 81.0962 195.752 88.1974C203.229 96.0813 212.637 113.735 214.971 124.257C220.779 150.449 212.107 175.652 189.837 197.295C186.141 200.888 179.682 205.994 175.484 208.644L167.852 213.46L172.982 224.176L178.112 234.893L143.791 224.121C124.914 218.197 109.31 213.048 109.114 212.681C108.919 212.313 113.555 196.346 119.415 177.198Z" fill="#FC3769"/>
</svg>
